<?xml version="1.0" encoding="utf-8"?>
<!-- Generator: Adobe Illustrator 27.0.0, SVG Export Plug-In . SVG Version: 6.00 Build 0)  -->
<svg version="1.1" id="Capa_1" xmlns="http://www.w3.org/2000/svg" xmlns:xlink="http://www.w3.org/1999/xlink" x="0px" y="0px"
	 viewBox="0 0 73.8 48.1" style="enable-background:new 0 0 73.8 48.1;" xml:space="preserve">
<style type="text/css">
	.st0{fill:none;stroke:#E9540D;stroke-width:1.2;stroke-miterlimit:10;}
	.st1{fill:none;stroke:#251F20;stroke-width:1.2;stroke-miterlimit:10;}
</style>
<g>
	<path class="st0" d="M26.6,24.1c0,2,0.3,4,0.8,5.9c0.7,2.6,1.8,5,3.4,7.2c1.6,2.4,3.7,4.4,6.1,6c3.6,2.4,7.9,3.8,12.5,3.8
		c12.6,0,22.8-10.2,22.8-22.8S62,1.2,49.4,1.2c-4.6,0-8.9,1.4-12.5,3.8"/>
	<path class="st0" d="M43,11c1.9-1,4.1-1.5,6.4-1.5C57.5,9.5,64,16,64,24.1s-6.5,14.6-14.6,14.6c-2.3,0-4.5-0.5-6.4-1.5
		c-2.6-1.3-4.7-3.2-6.1-5.7c-1.3-2.2-2-4.7-2-7.4"/>
	<path class="st0" d="M46.4,18.1c0.9-0.5,2-0.7,3.1-0.7c3.7,0,6.7,3,6.7,6.7s-3,6.7-6.7,6.7c-1.1,0-2.1-0.3-3.1-0.7
		c-2.1-1.1-3.6-3.3-3.6-5.9"/>
	<path class="st1" d="M47.2,24.1c0-2-0.3-4-0.8-5.9c-0.7-2.6-1.8-5-3.4-7.2c-1.7-2.4-3.7-4.4-6.1-6C33.3,2.6,29,1.2,24.3,1.2
		C11.7,1.2,1.5,11.4,1.5,24.1s10.2,22.8,22.8,22.8c4.6,0,8.9-1.4,12.5-3.8"/>
	<path class="st1" d="M30.7,37.2c-1.9,0.9-4.1,1.5-6.4,1.5c-8.1,0-14.6-6.5-14.6-14.6S16.3,9.5,24.3,9.5S38.9,16,38.9,24.1"/>
	<path class="st1" d="M31,24.1c0-3.7-3-6.7-6.7-6.7c-3.7,0-6.7,3-6.7,6.7s3,6.7,6.7,6.7c1.1,0,2.1-0.3,3-0.7"/>
</g>
</svg>
